<svg xmlns="http://www.w3.org/2000/svg" viewBox="0 0 74 79"><path d="M73.7 17.9c-1-5.2-5.8-9.2-11.8-10.6C55.8 5.8 48.2 5 37.2 5h-.1C26.2 5 23.5 5.8 17.3 7.3 11.4 8.7 6.5 12.7 5.5 17.9c-1 5.4-1.1 11.6-.8 17.3.2 4 .3 8 .6 12 .5 5.5 1.5 10.9 4.5 15.5 3.4 5.3 8.6 8.5 14.2 10.2 6 1.8 12.5 2.1 18.7 1.2 1-.2 2-.3 3-.5l.1-4.9c-1.4.3-2.8.6-4.2.7-5.8.6-11.7.1-16-3.1-.4-.3-.7-.6-1-1l.2-.1c7.2 1.7 14.5 2.4 21.9 1.9 2.1-.1 4.2-.4 6.3-.7 4.3-.8 8.4-2 12.1-4.2.1 0 .1-.1.2-.1v-.1c3.3-2.6 5.5-7 6.3-13.1.3-2.2.4-4.6.5-6.9.1-1.6.2-3.2.2-4.9v-2c.1-2.8 0-5.6-.3-8.3zM61.4 43h-8.5V25.5c0-3.7-1.5-5.5-4.7-5.5-3.4 0-5.2 2.2-5.2 6.6V36h-8.4V26.6c0-4.4-1.7-6.6-5.2-6.6-3.1 0-4.7 1.9-4.7 5.5V43h-8.5V25c0-3.7 1-6.6 2.8-8.8 2-2.2 4.5-3.3 7.7-3.3 3.7 0 6.5 1.4 8.3 4.3l1.8 3 1.8-3c1.8-2.8 4.6-4.3 8.3-4.3 3.2 0 5.8 1.1 7.7 3.3 1.9 2.2 2.8 5.1 2.8 8.8V43z"/></svg>
