<svg xmlns="http://www.w3.org/2000/svg" viewBox="0 0 192 192"><path d="M141.537 88.988a66.667 66.667 0 00-2.518-1.143c-1.482-27.307-16.403-42.94-41.457-43.1h-.34c-14.986 0-27.449 6.396-35.12 18.036l13.779 9.452c5.73-8.695 14.724-10.548 21.348-10.548h.229c8.249.053 14.474 2.452 18.503 7.129 2.932 3.405 4.893 8.111 5.864 14.05-7.314-1.243-15.224-1.626-23.674-1.14-23.82 1.371-39.134 15.24-38.264 34.678.44 9.846 5.063 18.345 13.018 23.93 6.72 4.72 15.376 7.064 24.37 6.6 11.87-.612 21.168-5.065 27.616-13.236 4.894-6.205 7.996-14.158 9.362-24.036 5.603 3.382 9.77 7.834 12.204 13.14 4.14 9.022 4.384 23.83-3.613 31.827-7.034 7.034-15.48 10.076-28.15 10.172-14.088-.107-24.738-4.628-31.648-13.432C74.86 143.142 71.1 129.01 70.97 112.11c.13-16.9 3.89-31.034 11.17-41.986C89.07 61.17 99.72 56.65 113.81 56.543c14.17.11 25.01 4.65 32.21 13.49 3.5 4.3 6.16 9.56 7.94 15.65l15.03-4.08c-2.25-7.79-5.81-14.7-10.63-20.58C148.2 48.92 133.36 42.86 114.03 42.7h-.24c-19.22.16-34.16 6.2-44.38 17.96C60.28 71.29 55.87 87.09 55.72 112l.003.14c.15 24.91 4.56 40.71 13.69 51.35 10.22 11.89 25.16 17.93 44.38 18.09h.24c15.43-.11 27.12-4.49 36.72-13.78 12.43-12.05 11.73-27.56 6.36-39.33-3.86-8.45-10.63-15.27-19.61-19.48zM99.56 141.24c-9.97.55-20.33-3.93-21.08-14.96-.56-8.22 5.83-17.38 23.53-18.4 2.07-.12 4.1-.18 6.07-.18 6.3 0 12.19.6 17.53 1.77-2 23.96-14.3 31.16-26.05 31.77z"/></svg>
